<?xml version="1.0" encoding="UTF-8" standalone="no"?>
<!-- Created with Inkscape (http://www.inkscape.org/) -->

<svg
   width="45mm"
   height="45mm"
   viewBox="0 0 45 45"
   version="1.1"
   id="svg1"
   xml:space="preserve"
   inkscape:version="1.4 (e7c3feb1, 2024-10-09)"
   sodipodi:docname="bearhead.svg"
   xmlns:inkscape="http://www.inkscape.org/namespaces/inkscape"
   xmlns:sodipodi="http://sodipodi.sourceforge.net/DTD/sodipodi-0.dtd"
   xmlns="http://www.w3.org/2000/svg"
   xmlns:svg="http://www.w3.org/2000/svg"><sodipodi:namedview
     id="namedview1"
     pagecolor="#ffffff"
     bordercolor="#000000"
     borderopacity="0.25"
     inkscape:showpageshadow="2"
     inkscape:pageopacity="0.0"
     inkscape:pagecheckerboard="0"
     inkscape:deskcolor="#d1d1d1"
     inkscape:document-units="mm"
     inkscape:zoom="4.9033609"
     inkscape:cx="97.99401"
     inkscape:cy="91.05999"
     inkscape:window-width="2240"
     inkscape:window-height="1122"
     inkscape:window-x="0"
     inkscape:window-y="25"
     inkscape:window-maximized="1"
     inkscape:current-layer="g8" /><defs
     id="defs1" /><g
     inkscape:label="Layer 1"
     inkscape:groupmode="layer"
     id="layer1"
     transform="translate(-35.712992,-116.29728)"><g
       id="g8"
       transform="matrix(1.0336122,0,0,1.051724,-1.9296869,-6.8554026)"><path
         id="path1"
         style="fill:#d1a6ea;fill-opacity:0.996357;stroke:none;stroke-width:2.79859;stroke-linecap:round"
         d="m 74.047422,123.14898 c -2.076754,0.005 -3.994372,1.1643 -5.03587,3.04323 -5.32222,-3.12176 -11.35889,-2.47527 -16.346803,-1.61644 -2.275439,0.39178 -4.340823,1.15839 -6.250265,2.31355 -1.048621,-1.30147 -2.647966,-2.06116 -4.34082,-2.06189 -3.055802,-2.7e-4 -5.533126,2.42569 -5.532995,5.41827 0.0052,2.3215 1.52013,4.38174 3.766695,5.12269 -0.221409,1.39628 -0.235346,3.7959 -0.06666,4.99415 0.432962,3.07558 0.564378,7.09507 2.053622,9.91615 1.170814,2.21787 5.165543,4.36531 9.678995,5.60069 6.470714,1.77111 11.674394,1.2041 16.791744,-0.51934 2.46885,-0.83146 5.66358,-2.30102 7.04504,-5.76864 1.39522,-3.50217 1.55332,-9.91316 1.2883,-13.6432 -0.03228,-0.45427 -0.12255,-0.90537 -0.25735,-1.35186 1.871204,-1.06638 3.038082,-3.11431 3.04426,-5.34282 -1.53e-4,-3.37155 -2.613844,-6.10462 -5.83789,-6.10454 z"
         sodipodi:nodetypes="scccccccsssssccss" /><ellipse
         style="fill:#e1e1e1;fill-opacity:1;stroke:none;stroke-width:3.03238;stroke-linecap:round;stroke-opacity:1"
         id="path2"
         cx="56.132183"
         cy="143.45026"
         rx="6.8873005"
         ry="6.6990571" /><ellipse
         style="fill:#474032;fill-opacity:1;stroke:none;stroke-width:2.8707;stroke-linecap:round;stroke-opacity:1"
         id="path3"
         cx="48.016579"
         cy="139.15721"
         rx="1.5792534"
         ry="2.0285876" /><ellipse
         style="fill:#474032;fill-opacity:1;stroke:none;stroke-width:3.20051;stroke-linecap:round;stroke-opacity:1"
         id="ellipse3"
         cx="63.802017"
         cy="138.04536"
         rx="1.8208777"
         ry="2.1868963" /><path
         style="fill:#474032;fill-opacity:1;stroke:none;stroke-width:2.8707;stroke-linecap:round;stroke-opacity:1"
         d="m 54.728404,139.15722 c -1.426309,0.10172 -4.014507,1.48413 -3.728796,2.83059 0.19121,0.90112 2.105669,1.74554 3.728796,1.50965 1.623119,-0.23588 4.292528,-1.78707 3.991999,-2.97212 -0.300332,-1.18425 -2.25355,-1.4921 -3.991999,-1.36812 z"
         id="path4"
         sodipodi:nodetypes="sssss" /><path
         id="path5"
         style="fill:#474032;fill-opacity:1;stroke-width:1.19229;stroke-linecap:round"
         d="m 55.019309,143.86884 a 0.57486483,0.61821805 0 0 0 -0.127746,0.0197 0.57486483,0.61821805 0 0 0 -0.412926,0.75332 l 0.641676,2.67847 C 54.12183,147.35904 53.252336,146.76 53.252336,146.76 a 0.57486483,0.61821805 0 0 0 -0.799117,0.16421 0.57486483,0.61821805 0 0 0 0.155071,0.85939 c 0,0 1.532315,1.16162 3.321237,0.65236 1.665832,-0.4742 2.873853,-1.70023 2.873853,-1.70023 a 0.57486483,0.61821805 0 0 0 0.03149,-0.87409 0.57486483,0.61821805 0 0 0 -0.81041,-0.0338 c 0,0 -0.762064,0.73536 -1.789543,1.19162 l -0.642262,-2.68676 a 0.57486483,0.61821805 0 0 0 -0.573347,-0.46387 z" /><path
         id="path7"
         style="fill:#94729c;fill-opacity:1;stroke:none;stroke-width:0.867798;stroke-linecap:round;stroke-dasharray:none;stroke-opacity:1"
         d="m 42.106811,126.80407 a 3.6152925,3.4534137 0 0 0 -3.615283,3.45302 3.6152925,3.4534137 0 0 0 2.480469,3.27215 c 0.436733,-0.96183 1.030379,-1.97824 1.836063,-2.84014 0.752218,-0.8047 1.583207,-1.57956 2.36368,-2.26136 a 3.6152925,3.4534137 0 0 0 -3.064929,-1.62367 z" /><path
         id="ellipse7"
         style="fill:#94729c;fill-opacity:1;stroke:none;stroke-width:0.881792;stroke-linecap:round;stroke-dasharray:none;stroke-opacity:1"
         d="m 73.975501,125.18515 a 3.600567,3.5802768 4.9914963 0 0 -3.23279,1.97399 c 0.606619,0.46597 1.243111,0.99762 1.944232,1.64868 1.008525,0.9365 2.052657,1.8943 2.817757,3.1853 a 3.600567,3.5802768 4.9914963 0 0 2.050551,-3.20361 3.600567,3.5802768 4.9914963 0 0 -3.57975,-3.60436 z" /></g></g></svg>
