<?xml version="1.0" encoding="UTF-8" standalone="no"?>
<!-- Created with Inkscape (http://www.inkscape.org/) -->

<svg
   width="210mm"
   height="297mm"
   viewBox="0 0 210 297"
   version="1.1"
   id="svg1"
   inkscape:version="1.4 (e7c3feb1, 2024-10-09)"
   sodipodi:docname="flame01.svg"
   xmlns:inkscape="http://www.inkscape.org/namespaces/inkscape"
   xmlns:sodipodi="http://sodipodi.sourceforge.net/DTD/sodipodi-0.dtd"
   xmlns:xlink="http://www.w3.org/1999/xlink"
   xmlns="http://www.w3.org/2000/svg"
   xmlns:svg="http://www.w3.org/2000/svg">
  <sodipodi:namedview
     id="namedview1"
     pagecolor="#ffffff"
     bordercolor="#000000"
     borderopacity="0.25"
     inkscape:showpageshadow="2"
     inkscape:pageopacity="0.0"
     inkscape:pagecheckerboard="0"
     inkscape:deskcolor="#d1d1d1"
     inkscape:document-units="mm"
     inkscape:zoom="0.86679994"
     inkscape:cx="260.1523"
     inkscape:cy="130.9414"
     inkscape:window-width="1712"
     inkscape:window-height="1122"
     inkscape:window-x="0"
     inkscape:window-y="25"
     inkscape:window-maximized="0"
     inkscape:current-layer="layer1" />
  <defs
     id="defs1">
    <linearGradient
       id="linearGradient3"
       inkscape:collect="always">
      <stop
         style="stop-color:#ff0000;stop-opacity:1;"
         offset="0"
         id="stop3" />
      <stop
         style="stop-color:#fffc00;stop-opacity:0.99999994;"
         offset="0.48228347"
         id="stop4" />
      <stop
         style="stop-color:#ff0000;stop-opacity:1;"
         offset="0.99409449"
         id="stop5" />
    </linearGradient>
    <linearGradient
       inkscape:collect="always"
       xlink:href="#linearGradient3"
       id="linearGradient4"
       x1="85.467651"
       y1="91.763382"
       x2="85.467651"
       y2="156.47469"
       gradientUnits="userSpaceOnUse" />
  </defs>
  <g
     inkscape:label="Layer 1"
     inkscape:groupmode="layer"
     id="layer1">
    <g
       id="g8"
       transform="matrix(1.84915,0,0,1.6788258,-208.05066,-167.37089)">
      <path
         id="rect1"
         style="fill:url(#linearGradient4);fill-opacity:1;stroke:none;stroke-width:10;stroke-opacity:1"
         d="m 84.413969,107.89057 -2.212785,6.45697 -2.039152,-0.17983 -0.177767,-1.14618 -2.017448,8.27701 -3.086116,-7.42177 -0.874882,3.29282 -2.056722,-0.0858 -1.290878,-7.21661 -1.396297,3.82043 -1.89084,-0.29507 -2.138888,9.19324 -4.24987,-13.41572 -1.117244,4.89996 -1.432471,-0.0956 v 22.56916 l 1.256771,2.57142 2.898531,-8.61084 2.015381,0.29094 0.291455,7.64811 4.029211,-10.52907 2.030884,11.40809 4.69377,-9.52139 0.646473,6.13451 0.411861,-2.77502 2.011763,-0.15452 1.119312,3.61736 0.746208,-3.23237 2.040702,0.15813 0.455269,6.31641 2.849439,-7.83621 1.998327,0.21497 0.958598,7.08381 0.22686,1.01958 3.796667,-9.53482 0.896586,4.96093 2.175578,-7.68738 3.259749,6.74584 0.994256,-3.21892 2.00194,0.0941 1.42007,6.83369 1.60352,-3.77342 1.97456,0.3514 2.20503,-8.15402 3.0701,8.33644 v -25.57105 l -0.23823,-0.56637 -2.6696,9.22063 -2.06654,-0.25942 -0.26149,-8.01398 -2.40037,7.28741 -2.04328,-0.17002 -1.26349,-8.24239 -2.810684,6.62337 -2.019515,-0.31678 -0.19327,-2.12286 -0.297139,2.33009 -2.066024,0.13849 -0.961181,-3.61115 -0.636654,3.20497 -2.086178,-0.14056 -0.408244,-6.5567 -2.554366,8.16797 -2.054655,-0.1912 -0.908471,-7.79332 z" />
      <path
         id="path1"
         style="fill:#ff5802;fill-opacity:1"
         d="m 84.992228,99.695207 -3.402376,9.929623 -0.562756,-3.61115 -2.089795,0.0486 -0.449069,4.18579 -1.046964,4.29483 -2.999817,-7.21868 -1.25212,4.71289 -1.829862,-10.23245 -2.259811,6.18567 -0.0801,-1.85932 -2.079977,-0.19534 -2.019515,8.68371 -4.271574,-13.4829 -1.365291,5.99654 -0.0041,-0.0336 -0.84646,-0.12816 v 7.00319 l 1.432471,0.0956 1.117244,-4.89996 4.24987,13.41572 2.138888,-9.19324 1.89084,0.29507 1.396297,-3.82043 1.290878,7.21661 2.056722,0.0858 0.874882,-3.29282 3.086116,7.42177 2.017448,-8.27701 0.177767,1.14618 2.039152,0.17983 2.212785,-6.45697 0.15813,0.82786 0.908471,7.79332 2.054655,0.1912 2.554366,-8.16797 0.408244,6.5567 2.086178,0.14056 0.636654,-3.20497 0.961181,3.61115 2.066024,-0.13849 0.297139,-2.33009 0.19327,2.12286 2.019515,0.31678 2.810682,-6.62337 1.26349,8.24239 2.04328,0.17002 2.40037,-7.28741 0.26149,8.01398 2.06654,0.25942 2.6696,-9.22063 0.23823,0.56637 v -5.44359 l -0.60513,-1.43919 -2.4784,8.56278 -0.2403,-7.31273 -2.05465,-0.29507 -2.88303,8.75812 -1.72238,-11.23859 -4.068482,9.59218 -0.685746,-7.55664 -2.095479,-0.0393 -0.839742,6.5841 -0.748275,-2.80655 -1.972489,0.0641 -0.275436,-4.45503 -2.058789,-0.2496 -2.781225,8.88835 -0.343649,-2.94504 z" />
      <path
         id="path2"
         style="fill:#ff5802;fill-opacity:1"
         d="m 109.44138,126.96486 -2.20503,8.15402 -1.97456,-0.3514 -1.60352,3.77342 -1.42007,-6.83369 -2.00194,-0.0941 -0.994256,3.21892 -3.259749,-6.74584 -2.175578,7.68738 -0.896586,-4.96093 -3.796667,9.53482 -0.22686,-1.01958 -0.958598,-7.08381 -1.998327,-0.21497 -2.849439,7.83621 -0.455269,-6.31641 -2.040702,-0.15813 -0.746208,3.23237 -1.119312,-3.61736 -2.011763,0.15452 -0.411861,2.77502 -0.646473,-6.13451 -4.69377,9.52139 -2.030884,-11.40809 -4.029211,10.52907 -0.291455,-7.64811 -2.015381,-0.29094 -2.898531,8.61084 -1.256771,-2.57142 v 4.70928 l 1.612305,3.29799 2.705261,-8.03931 0.267167,7.06469 2.000395,0.33176 3.17345,-8.29665 1.832446,10.28103 4.316015,-8.75761 0.751893,7.13083 2.053104,0.0429 0.941545,-6.34534 2.042769,6.60114 0.925525,-4.01319 0.310575,4.30051 2.004012,0.27957 3.072164,-8.45168 0.408244,3.01222 1.703255,7.65587 3.607532,-9.0563 0.644405,3.57188 2.044837,-0.0563 0.472839,-3.79512 1.167887,-4.11913 3.177584,6.57635 1.361672,-4.41007 1.94717,9.37669 2.42569,-5.7087 0.0997,2.0035 2.03088,0.21911 2.21124,-8.17418 2.76727,7.51685 v -5.99085 z" />
    </g>
  </g>
</svg>
