<?xml version="1.0" encoding="UTF-8" standalone="no"?>
<!-- Created with Inkscape (http://www.inkscape.org/) -->

<svg
   width="51.272648mm"
   height="50.403622mm"
   viewBox="0 0 51.272648 50.403622"
   version="1.1"
   id="svg5"
   xmlns="http://www.w3.org/2000/svg"
   xmlns:svg="http://www.w3.org/2000/svg">
  <defs
     id="defs2" />
  <rect
     style="fill:#53a840;fill-opacity:1;stroke:none;stroke-width:4.99999;stroke-linecap:round;stroke-dasharray:none;stroke-opacity:1"
     id="rect3"
     width="51.272839"
     height="50.403641"
     x="0"
     y="0" />
  <path
     style="fill:#316326;fill-opacity:1;stroke-width:0.358008;stroke-linecap:square"
     d="m 43.633977,9.4609637 c -2.138104,2.0887883 -2.078011,2.9538733 -2.214592,4.3932953 l -0.556159,0.307361 c 0.264955,-2.02933 0.455397,-2.98046 2.770751,-4.7006563 z"
     id="path3-3" />
  <path
     style="fill:#316326;fill-opacity:1;stroke-width:0.316937;stroke-linecap:square"
     d="m 38.958756,10.410758 c 1.280651,2.104522 1.17706,3.023416 1.173584,3.88358 l 0.300833,0.0047 c -0.05511,-2.367973 -1.474417,-3.888329 -1.474417,-3.888329 z"
     id="path4-6" />
  <path
     style="fill:#316326;fill-opacity:1;stroke-width:0.423707;stroke-linecap:square"
     d="m 40.133147,5.0847171 c 1.538396,3.2438073 0.187627,5.3373669 0.611025,8.8281089 l 0.595271,0.0402 C 40.6573,10.590117 41.927015,8.1881002 40.133147,5.0847171 Z"
     id="path5-3" />
  <path
     style="stroke-width:0.402372;stroke-linecap:square;fill:#316326;fill-opacity:1"
     d="M 5.8824225,4.0340666 C 8.020526,6.67261 7.9604326,7.765379 8.0970137,9.5836466 L 8.6531728,9.9719025 C 8.3882182,7.408468 8.197776,6.2070062 5.8824225,4.0340666 Z"
     id="path3" />
  <path
     style="stroke-width:0.316937;stroke-linecap:square;fill:#316326;fill-opacity:1"
     d="M 11.290787,5.4420757 C 9.5519214,7.4549544 9.6326022,8.5571345 9.5215238,9.9442454 L 9.0374053,9.9719045 C 9.2528863,8.0163243 9.4077681,7.0997591 11.290787,5.4420777 Z"
     id="path4" />
  <path
     style="stroke-width:0.402372;stroke-linecap:square;fill:#316326;fill-opacity:1"
     d="m 8.1769557,1.7656078 c 1.5383959,2.9253604 0.1876276,4.8133936 0.6110254,7.9614474 l 0.5952705,0.036254 C 8.701109,6.7305383 9.9708243,4.5643295 8.1769557,1.7656078 Z"
     id="path5" />
  <path
     style="fill:#316326;fill-opacity:1;stroke-width:0.528067;stroke-linecap:square"
     d="m 26.778445,11.82336 c -2.917036,3.330985 -2.83505,4.710533 -3.021389,7.005976 l -0.758774,0.490147 c 0.36148,-3.236166 0.621303,-4.752932 3.780163,-7.496123 z"
     id="path6" />
  <path
     style="fill:#316326;fill-opacity:1;stroke-width:0.415943;stroke-linecap:square"
     d="m 19.399758,13.600878 c 2.372352,2.541124 2.262278,3.932555 2.413824,5.683689 l 0.660487,0.03492 C 22.180086,16.850695 21.96878,15.693592 19.399758,13.60088 Z"
     id="path7" />
  <path
     style="fill:#316326;fill-opacity:1;stroke-width:0.528067;stroke-linecap:square"
     d="M 23.64799,8.9595807 C 21.54914,12.652654 23.392007,15.03617 22.814362,19.010379 l -0.812134,0.04576 C 22.932883,15.22747 21.200596,12.492776 23.64799,8.9595756 Z"
     id="path8" />
  <path
     style="fill:#316326;fill-opacity:1;stroke-width:0.415943;stroke-linecap:square"
     d="m 39.435958,38.926414 c -0.17074,2.40366 -0.601564,4.138752 -0.450018,5.889886 l 0.45429,0.149474 c -0.293983,-2.468792 -0.0043,-6.03936 -0.0043,-6.03936 z"
     id="path10" />
  <path
     style="fill:#316326;fill-opacity:1;stroke-width:0.376126;stroke-linecap:square"
     d="m 35.34089,39.835964 c 2.077716,2.372559 2.01932,3.355169 2.152043,4.990143 l 0.540452,0.349117 C 37.775914,42.870202 37.59085,41.789855 35.34089,39.835964 Z"
     id="path12" />
  <path
     style="fill:#316326;fill-opacity:1;stroke-width:0.296264;stroke-linecap:square"
     d="m 40.596504,41.102036 c -1.689754,1.809965 -1.611352,2.801039 -1.719293,4.048319 l -0.470445,0.02487 c 0.209395,-1.758445 0.359902,-2.582615 2.189738,-4.07319 z"
     id="path13" />
  <path
     style="fill:#316326;fill-opacity:1;stroke-width:0.376126;stroke-linecap:square"
     d="m 37.570618,37.796181 c 1.494947,2.630464 0.182329,4.32817 0.593768,7.158878 l 0.578458,0.03259 c -0.662877,-2.727044 0.570978,-4.674883 -1.172226,-7.191475 z"
     id="path14" />
  <path
     style="fill:#316326;fill-opacity:1;stroke-width:0.617777;stroke-linecap:square"
     d="m 10.931781,36.543697 c -0.299409,3.023715 -1.0548983,5.206396 -0.789148,7.409257 l 0.796639,0.188033 c -0.515526,-3.105648 -0.0075,-7.59729 -0.0075,-7.59729 z"
     id="path15" />
  <path
     style="fill:#316326;fill-opacity:1;stroke-width:0.558639;stroke-linecap:square"
     d="m 7.5272543,39.013636 c 2.0364229,2.264071 1.6527876,2.721994 1.8855298,4.778731 l 0.6664999,0.208609 C 9.627785,41.101344 9.6648436,40.722217 7.5272543,39.013636 Z"
     id="path16" />
  <path
     style="fill:#316326;fill-opacity:1;stroke-width:0.354755;stroke-linecap:square"
     d="m 38.683827,8.3029702 c 1.738866,2.5219108 1.658185,3.9028178 1.769263,5.6407118 l 0.484119,0.03465 C 40.721728,11.528215 40.566846,10.379861 38.683827,8.302974 Z"
     id="path18" />
</svg>
